<?xml version="1.0" encoding="iso-8859-1"?>
<!-- Generator: Adobe Illustrator 23.1.1, SVG Export Plug-In . SVG Version: 6.00 Build 0)  -->
<svg version="1.1" xmlns="http://www.w3.org/2000/svg" xmlns:xlink="http://www.w3.org/1999/xlink" x="0px" y="0px"
	 width="340.157px" height="232.441px" viewBox="0 0 340.157 232.441" enable-background="new 0 0 340.157 232.441"
	 xml:space="preserve">
<g id="Sucafina_VECT">
	<g>
		<path fill="#51534A" d="M32.157,212.872c-9.899,0-17.369-7.019-17.639-16.829c0-0.899,0.09-1.62,1.17-1.62h6.21
			c0.99,0,1.44,0.36,1.53,1.261c0.54,4.229,3.42,8.729,8.729,8.729c4.5,0,7.74-3.24,7.92-7.92
			c0.72-12.869-24.479-20.249-24.479-37.348c0-8.729,6.39-15.389,15.839-15.389c9.899,0,15.479,7.02,15.929,15.389
			c0,0.9-0.09,1.62-1.17,1.62h-6.209c-0.99,0-1.44-0.271-1.53-1.26c-0.72-3.78-2.79-7.29-6.749-7.29c-3.87,0-6.57,3.15-6.39,6.93
			c0.81,10.26,24.388,19.259,24.388,36.808C49.706,206.843,40.706,212.872,32.157,212.872z"/>
		<path fill="#51534A" d="M93.084,146.456v31.409v14.848c0,12.51-6.03,20.159-17.189,20.159c-11.069,0-17.099-7.649-17.099-20.159
			v-21.688v-24.569c0-1.35,0.54-1.89,1.89-1.89h5.85c1.35,0,1.89,0.54,1.89,1.89v30.598v15.659c0,7.02,2.79,11.16,7.47,11.16
			c4.77,0,7.56-4.14,7.56-11.16v-21.419v-24.838c0-1.35,0.54-1.89,1.89-1.89h5.85C92.544,144.566,93.084,145.106,93.084,146.456z"/>
		<path fill="#51534A" d="M103.884,192.713v-28.798c0-12.509,6.03-20.159,17.099-20.159c10.44,0,16.019,6.93,16.559,15.84
			c0,0.81-0.09,1.62-1.17,1.62h-6.57c-0.99,0-1.44-0.36-1.53-1.351c-0.72-3.869-3.06-7.109-7.2-7.109
			c-4.77,0-7.56,4.229-7.56,11.159v28.798c0,6.93,2.79,11.16,7.56,11.16c4.14,0,6.479-3.24,7.2-7.11c0.09-0.989,0.54-1.35,1.53-1.35
			h6.57c1.08,0,1.17,0.81,1.17,1.62c-0.54,8.909-6.12,15.839-16.559,15.839C109.914,212.872,103.884,205.223,103.884,192.713z"/>
		<path fill="#51534A" d="M154.912,146.366c0.27-1.53,0.9-1.8,2.34-1.8h4.68c1.439,0,2.07,0.27,2.43,1.8l14.219,63.896
			c0.36,1.35-0.36,1.8-1.35,1.8h-6.12c-1.17,0-1.71-0.45-2.07-1.8l-2.25-10.71c-0.27-1.08-0.63-1.26-1.8-1.26h-10.799
			c-1.17,0-1.53,0.18-1.8,1.26l-2.249,10.71c-0.36,1.35-0.9,1.8-2.07,1.8h-6.12c-0.99,0-1.71-0.45-1.35-1.8L154.912,146.366z
			 M155.092,189.743h9.089c0.45,0,0.81-0.27,0.72-0.989l-4.77-24.119c-0.09-0.63-0.99-0.63-1.08,0l-4.68,24.119
			C154.192,189.474,154.552,189.743,155.092,189.743z"/>
		<path fill="#51534A" d="M212.96,146.456v4.769c0,1.351-0.54,1.891-1.89,1.891h-13.229c-1.35,0-1.71,0.359-1.71,1.71v16.558
			c0,1.351,0.36,1.71,1.71,1.71h8.729c1.35,0,1.89,0.54,1.89,1.891v4.859c0,1.35-0.54,1.89-1.89,1.89h-8.729
			c-1.35,0-1.71,0.36-1.71,1.71v26.729c0,1.35-0.54,1.89-1.89,1.89h-5.85c-1.35,0-1.89-0.54-1.89-1.89v-63.717
			c0-1.35,0.54-1.89,1.89-1.89h22.679C212.42,144.566,212.96,145.106,212.96,146.456z"/>
		<path fill="#51534A" d="M222.05,146.456c0-1.35,0.54-1.89,1.89-1.89h5.85c1.35,0,1.89,0.54,1.89,1.89v63.717
			c0,1.35-0.54,1.89-1.89,1.89h-5.85c-1.35,0-1.89-0.54-1.89-1.89V146.456z"/>
		<path fill="#51534A" d="M279.646,146.456v63.717c0,1.35-0.54,1.89-1.89,1.89h-4.41c-1.44,0-1.98-0.45-2.61-1.89l-16.469-40.228
			c-0.27-0.63-0.99-0.45-0.99,0.18v40.048c0,1.35-0.54,1.89-1.89,1.89h-5.85c-1.35,0-1.89-0.54-1.89-1.89v-63.717
			c0-1.35,0.54-1.89,1.89-1.89h4.41c1.44,0,1.98,0.45,2.61,1.89l16.469,40.228c0.27,0.63,0.99,0.45,0.99-0.18v-40.048
			c0-1.35,0.54-1.89,1.89-1.89h5.849C279.107,144.566,279.646,145.106,279.646,146.456z"/>
		<path fill="#51534A" d="M301.877,146.366c0.27-1.53,0.9-1.8,2.34-1.8h4.68c1.439,0,2.07,0.27,2.43,1.8l14.219,63.896
			c0.36,1.35-0.36,1.8-1.35,1.8h-6.12c-1.17,0-1.71-0.45-2.07-1.8l-2.25-10.71c-0.27-1.08-0.63-1.26-1.8-1.26h-10.799
			c-1.17,0-1.53,0.18-1.8,1.26l-2.249,10.71c-0.36,1.35-0.9,1.8-2.07,1.8h-6.12c-0.99,0-1.71-0.45-1.35-1.8L301.877,146.366z
			 M302.057,189.743h9.089c0.45,0,0.81-0.27,0.72-0.989l-4.77-24.119c-0.09-0.63-0.99-0.63-1.08,0l-4.68,24.119
			C301.157,189.474,301.517,189.743,302.057,189.743z"/>
	</g>
</g>
<g id="Symbole">
	<g>
		<g>
			<path fill="#007680" d="M223.085,72.284c0,29.275-23.732,53.007-53.007,53.007s-53.007-23.732-53.007-53.007
				s23.732-53.007,53.007-53.007S223.085,43.009,223.085,72.284z M170.079,23.896c-26.725,0-48.389,21.665-48.389,48.39
				s21.665,48.389,48.389,48.389s48.39-21.665,48.39-48.389S196.804,23.896,170.079,23.896z"/>
			<path fill="#007680" d="M182.634,84.429c2.836-18.816,14.326-27.176,20.962-29.46c-10.531-5.647-26.306-0.801-37.547,12.308
				c-12.735,14.851-14.826,34.673-4.67,44.274c1.153,1.09,2.418,1.992,3.767,2.729l1.128-0.307
				C171.074,112.666,179.761,103.488,182.634,84.429z"/>
			<path fill="#007680" d="M207.837,58.12l-1.014,0.052c-4.26,0.219-17.587,7.257-20.541,26.863
				c-2.527,16.763-9.421,27.243-15.801,31.195c10.08,2.085,22.834-3.093,32.344-14.183C215.412,87.37,217.593,67.842,207.837,58.12z
				"/>
		</g>
		<g>
			<path fill="#007680" d="M160.336,37.05c-3.89,4.736-5.365,10.92-5.177,13.852c0.447,5.769,4.298,9.395,5.178,16.229
				c3.89-4.736,5.365-11.195,5.177-14.127C165.066,47.236,161.216,43.884,160.336,37.05z"/>
			<path fill="#007680" d="M158.907,114.434c-5.82-5.502-8.465-13.84-7.449-23.477c0.504-4.78,1.898-9.605,4.056-14.233
				c-9.696-8.666-23.447-10.946-29.677-11.691c-0.154,1.589-0.233,3.201-0.233,4.832c0,22.566,15.116,41.478,35.27,46.205
				C160.195,115.562,159.532,115.025,158.907,114.434z"/>
			<path fill="#007680" d="M156.655,72.69c0.132-3.617-0.244-6.71-0.876-8.689c-2.967-8.874-10.335-12.477-14.4-22.838
				c-3.807,8.166-4.117,17.305-3.106,22.385C145.553,65.615,151.774,68.7,156.655,72.69z"/>
		</g>
	</g>
	<g>
	</g>
	<g>
	</g>
	<g>
	</g>
	<g>
	</g>
	<g>
	</g>
	<g>
	</g>
</g>
</svg>
